<svg xmlns="http://www.w3.org/2000/svg" xmlns:xlink="http://www.w3.org/1999/xlink" width="375" zoomAndPan="magnify" viewBox="0 0 281.25 74.999997" height="100" preserveAspectRatio="xMidYMid meet" version="1.0"><defs><g/><clipPath id="5df7e20a95"><path d="M 0 0.101562 L 280.503906 0.101562 L 280.503906 74.898438 L 0 74.898438 Z M 0 0.101562 " clip-rule="nonzero"/></clipPath><clipPath id="65d38a96ed"><path d="M 1 1 L 279 1 L 279 74.898438 L 1 74.898438 Z M 1 1 " clip-rule="nonzero"/></clipPath><clipPath id="1bec1d5213"><path d="M 19 6 L 45 6 L 45 32 L 19 32 Z M 19 6 " clip-rule="nonzero"/></clipPath><clipPath id="955e965a4b"><path d="M 12.921875 21.089844 L 33.871094 0.140625 L 44.617188 10.882812 L 23.664062 31.835938 Z M 12.921875 21.089844 " clip-rule="nonzero"/></clipPath><clipPath id="b1f2655687"><path d="M 12.921875 21.089844 L 33.871094 0.140625 L 44.617188 10.882812 L 23.664062 31.835938 Z M 12.921875 21.089844 " clip-rule="nonzero"/></clipPath><clipPath id="ca67596b78"><path d="M 9 38 L 41 38 L 41 70 L 9 70 Z M 9 38 " clip-rule="nonzero"/></clipPath><clipPath id="f7140cd5fd"><path d="M 9.160156 59.230469 L 30.109375 38.277344 L 40.855469 49.023438 L 19.902344 69.972656 Z M 9.160156 59.230469 " clip-rule="nonzero"/></clipPath><clipPath id="166f5346b0"><path d="M 0.0546875 0.117188 L 26 0.117188 L 26 26 L 0.0546875 26 Z M 0.0546875 0.117188 " clip-rule="nonzero"/></clipPath><clipPath id="2912150d51"><path d="M 0.160156 21.230469 L 21.109375 0.277344 L 31.855469 11.023438 L 10.902344 31.972656 Z M 0.160156 21.230469 " clip-rule="nonzero"/></clipPath><clipPath id="7adcdc9b10"><path d="M 10.667969 31.738281 L 31.621094 10.785156 L 20.875 0.0429688 L -0.078125 20.996094 Z M 10.667969 31.738281 " clip-rule="nonzero"/></clipPath><clipPath id="ab0ca03460"><rect x="0" width="32" y="0" height="32"/></clipPath><clipPath id="153b240d67"><path d="M 20.214844 28.78125 L 32.371094 28.78125 L 32.371094 40.9375 L 20.214844 40.9375 Z M 20.214844 28.78125 " clip-rule="nonzero"/></clipPath><clipPath id="a1c51b4bf5"><path d="M 40.699219 7.792969 L 52.855469 7.792969 L 52.855469 19.945312 L 40.699219 19.945312 Z M 40.699219 7.792969 " clip-rule="nonzero"/></clipPath><clipPath id="b336f87406"><path d="M 1.074219 49.554688 L 13 49.554688 L 13 61.710938 L 1.074219 61.710938 Z M 1.074219 49.554688 " clip-rule="nonzero"/></clipPath><clipPath id="5d91129e61"><path d="M 52 5 L 277.617188 5 L 277.617188 73.898438 L 52 73.898438 Z M 52 5 " clip-rule="nonzero"/></clipPath><clipPath id="b167cc08b9"><rect x="0" width="226" y="0" height="69"/></clipPath><clipPath id="e967259023"><path d="M 112 39 L 146 39 L 146 70 L 112 70 Z M 112 39 " clip-rule="nonzero"/></clipPath><clipPath id="249f93c91a"><path d="M 110.789062 40.359375 L 143.851562 38.199219 L 145.738281 67.085938 L 112.675781 69.246094 Z M 110.789062 40.359375 " clip-rule="nonzero"/></clipPath><clipPath id="991855c4bc"><path d="M 127.296875 39.28125 L 145.691406 67.089844 L 112.675781 69.246094 Z M 127.296875 39.28125 " clip-rule="nonzero"/></clipPath><clipPath id="b59dd647ab"><path d="M 0.457031 0.0742188 L 33.730469 0.0742188 L 33.730469 30.472656 L 0.457031 30.472656 Z M 0.457031 0.0742188 " clip-rule="nonzero"/></clipPath><clipPath id="7a8390d0dc"><path d="M -1.210938 1.359375 L 31.851562 -0.800781 L 33.738281 28.085938 L 0.675781 30.246094 Z M -1.210938 1.359375 " clip-rule="nonzero"/></clipPath><clipPath id="3cf2d588fc"><path d="M 15.296875 0.28125 L 33.691406 28.089844 L 0.675781 30.246094 Z M 15.296875 0.28125 " clip-rule="nonzero"/></clipPath><clipPath id="474fefbf38"><rect x="0" width="34" y="0" height="31"/></clipPath><clipPath id="fc8e924fcf"><path d="M 156.988281 23.230469 L 172.164062 23.230469 L 172.164062 44.871094 L 156.988281 44.871094 Z M 156.988281 23.230469 " clip-rule="nonzero"/></clipPath><clipPath id="d7d0250fc2"><path d="M 0.988281 0.230469 L 16.164062 0.230469 L 16.164062 21.871094 L 0.988281 21.871094 Z M 0.988281 0.230469 " clip-rule="nonzero"/></clipPath><clipPath id="1fa24beb82"><rect x="0" width="17" y="0" height="22"/></clipPath><clipPath id="966a7faa35"><path d="M 120 35 L 154 35 L 154 67 L 120 67 Z M 120 35 " clip-rule="nonzero"/></clipPath><clipPath id="eabc4962d8"><path d="M 122.644531 34.703125 L 155.683594 37.1875 L 153.515625 66.054688 L 120.476562 63.570312 Z M 122.644531 34.703125 " clip-rule="nonzero"/></clipPath><clipPath id="899aebead0"><path d="M 139.140625 35.941406 L 153.46875 66.050781 L 120.476562 63.570312 Z M 139.140625 35.941406 " clip-rule="nonzero"/></clipPath><clipPath id="e0e007cb42"><path d="M 0.355469 0.722656 L 33.628906 0.722656 L 33.628906 31.121094 L 0.355469 31.121094 Z M 0.355469 0.722656 " clip-rule="nonzero"/></clipPath><clipPath id="b69158c9ad"><path d="M 2.644531 -0.296875 L 35.683594 2.1875 L 33.515625 31.054688 L 0.476562 28.570312 Z M 2.644531 -0.296875 " clip-rule="nonzero"/></clipPath><clipPath id="d80fab1e19"><path d="M 19.140625 0.941406 L 33.46875 31.050781 L 0.476562 28.570312 Z M 19.140625 0.941406 " clip-rule="nonzero"/></clipPath><clipPath id="5161b41426"><rect x="0" width="34" y="0" height="32"/></clipPath><clipPath id="388df0a701"><rect x="0" width="278" y="0" height="74"/></clipPath></defs><g clip-path="url(#5df7e20a95)"><path fill="#ffffff" d="M 0 0.101562 L 280.503906 0.101562 L 280.503906 74.898438 L 0 74.898438 Z M 0 0.101562 " fill-opacity="1" fill-rule="nonzero"/><path fill="#000000" d="M 0 0.101562 L 280.503906 0.101562 L 280.503906 74.898438 L 0 74.898438 Z M 0 0.101562 " fill-opacity="1" fill-rule="nonzero"/></g><g clip-path="url(#65d38a96ed)"><g transform="matrix(1, 0, 0, 1, 1, 1)"><g clip-path="url(#388df0a701)"><g clip-path="url(#1bec1d5213)"><g clip-path="url(#955e965a4b)"><g clip-path="url(#b1f2655687)"><path fill="#30be63" d="M 44.453125 10.578125 L 43.324219 11.707031 C 38.152344 6.535156 29.734375 6.535156 24.5625 11.707031 C 19.390625 16.878906 19.390625 25.292969 24.5625 30.464844 L 23.433594 31.597656 C 17.640625 25.800781 17.640625 16.371094 23.433594 10.578125 C 29.230469 4.78125 38.65625 4.78125 44.453125 10.578125 Z M 44.453125 10.578125 " fill-opacity="1" fill-rule="nonzero"/></g></g></g><g clip-path="url(#ca67596b78)"><g clip-path="url(#f7140cd5fd)"><g transform="matrix(1, 0, 0, 1, 9, 38)"><g clip-path="url(#ab0ca03460)"><g clip-path="url(#166f5346b0)"><g clip-path="url(#2912150d51)"><g clip-path="url(#7adcdc9b10)"><path fill="#30be63" d="M 21.183594 0.207031 L 20.050781 1.335938 C 25.222656 6.507812 25.222656 14.921875 20.050781 20.09375 C 14.878906 25.265625 6.464844 25.265625 1.292969 20.09375 L 0.164062 21.226562 C 5.957031 27.019531 15.386719 27.019531 21.179688 21.226562 C 26.976562 15.429688 26.976562 6 21.183594 0.207031 Z M 21.183594 0.207031 " fill-opacity="1" fill-rule="nonzero"/></g></g></g></g></g></g></g><g clip-path="url(#153b240d67)"><path fill="#30be63" d="M 26.136719 28.78125 C 25.746094 28.78125 25.363281 28.820312 24.980469 28.894531 C 24.601562 28.96875 24.230469 29.082031 23.871094 29.230469 C 23.511719 29.378906 23.171875 29.5625 22.847656 29.777344 C 22.523438 29.996094 22.226562 30.238281 21.949219 30.515625 C 21.675781 30.789062 21.429688 31.089844 21.214844 31.410156 C 20.996094 31.734375 20.816406 32.078125 20.667969 32.433594 C 20.519531 32.792969 20.40625 33.164062 20.328125 33.546875 C 20.253906 33.925781 20.214844 34.3125 20.214844 34.699219 C 20.214844 35.089844 20.253906 35.472656 20.328125 35.855469 C 20.40625 36.238281 20.519531 36.605469 20.667969 36.964844 C 20.816406 37.324219 20.996094 37.667969 21.214844 37.988281 C 21.429688 38.3125 21.675781 38.613281 21.949219 38.886719 C 22.226562 39.160156 22.523438 39.40625 22.847656 39.621094 C 23.171875 39.839844 23.511719 40.019531 23.871094 40.167969 C 24.230469 40.320312 24.601562 40.429688 24.980469 40.507812 C 25.363281 40.582031 25.746094 40.621094 26.136719 40.621094 C 26.523438 40.621094 26.910156 40.582031 27.289062 40.507812 C 27.671875 40.429688 28.042969 40.320312 28.402344 40.167969 C 28.761719 40.019531 29.101562 39.839844 29.425781 39.621094 C 29.746094 39.40625 30.046875 39.160156 30.320312 38.886719 C 30.597656 38.613281 30.84375 38.3125 31.058594 37.988281 C 31.273438 37.667969 31.457031 37.324219 31.605469 36.964844 C 31.753906 36.605469 31.867188 36.238281 31.941406 35.855469 C 32.015625 35.472656 32.054688 35.089844 32.054688 34.699219 C 32.054688 34.3125 32.015625 33.925781 31.941406 33.546875 C 31.867188 33.164062 31.753906 32.792969 31.605469 32.433594 C 31.457031 32.078125 31.273438 31.734375 31.058594 31.410156 C 30.84375 31.089844 30.597656 30.789062 30.320312 30.515625 C 30.046875 30.238281 29.746094 29.996094 29.425781 29.777344 C 29.101562 29.5625 28.761719 29.378906 28.402344 29.230469 C 28.042969 29.082031 27.671875 28.96875 27.289062 28.894531 C 26.910156 28.820312 26.523438 28.78125 26.136719 28.78125 Z M 26.136719 31.148438 C 26.605469 31.148438 27.058594 31.238281 27.496094 31.417969 C 27.929688 31.597656 28.3125 31.855469 28.648438 32.1875 C 28.980469 32.523438 29.238281 32.90625 29.417969 33.339844 C 29.597656 33.777344 29.6875 34.230469 29.6875 34.699219 C 29.6875 35.171875 29.597656 35.625 29.417969 36.058594 C 29.238281 36.496094 28.980469 36.878906 28.648438 37.210938 C 28.3125 37.546875 27.929688 37.800781 27.496094 37.980469 C 27.058594 38.164062 26.605469 38.253906 26.136719 38.253906 C 25.664062 38.253906 25.210938 38.164062 24.777344 37.980469 C 24.339844 37.800781 23.957031 37.546875 23.625 37.210938 C 23.292969 36.878906 23.035156 36.496094 22.855469 36.058594 C 22.675781 35.625 22.585938 35.171875 22.585938 34.699219 C 22.585938 34.230469 22.675781 33.777344 22.855469 33.339844 C 23.035156 32.90625 23.292969 32.523438 23.625 32.1875 C 23.957031 31.855469 24.339844 31.597656 24.777344 31.417969 C 25.210938 31.238281 25.664062 31.148438 26.136719 31.148438 Z M 26.136719 31.148438 " fill-opacity="1" fill-rule="nonzero"/></g><g clip-path="url(#a1c51b4bf5)"><path fill="#30be63" d="M 46.617188 7.792969 C 46.230469 7.792969 45.84375 7.828125 45.460938 7.90625 C 45.082031 7.980469 44.710938 8.09375 44.351562 8.242188 C 43.992188 8.390625 43.652344 8.574219 43.328125 8.789062 C 43.003906 9.003906 42.707031 9.25 42.429688 9.523438 C 42.15625 9.800781 41.910156 10.097656 41.695312 10.421875 C 41.480469 10.746094 41.296875 11.085938 41.148438 11.445312 C 41 11.804688 40.886719 12.175781 40.8125 12.554688 C 40.734375 12.9375 40.699219 13.320312 40.699219 13.710938 C 40.699219 14.097656 40.734375 14.484375 40.8125 14.867188 C 40.886719 15.246094 41 15.617188 41.148438 15.976562 C 41.296875 16.335938 41.480469 16.675781 41.695312 17 C 41.910156 17.324219 42.15625 17.621094 42.429688 17.898438 C 42.707031 18.171875 43.003906 18.417969 43.328125 18.632812 C 43.652344 18.847656 43.992188 19.03125 44.351562 19.179688 C 44.710938 19.328125 45.082031 19.441406 45.460938 19.515625 C 45.84375 19.59375 46.230469 19.628906 46.617188 19.628906 C 47.007812 19.628906 47.390625 19.59375 47.773438 19.515625 C 48.152344 19.441406 48.523438 19.328125 48.882812 19.179688 C 49.242188 19.03125 49.582031 18.847656 49.90625 18.632812 C 50.230469 18.417969 50.527344 18.171875 50.804688 17.898438 C 51.078125 17.621094 51.324219 17.324219 51.539062 17 C 51.753906 16.675781 51.9375 16.335938 52.085938 15.976562 C 52.234375 15.617188 52.347656 15.246094 52.421875 14.867188 C 52.5 14.484375 52.535156 14.097656 52.535156 13.710938 C 52.535156 13.320312 52.5 12.9375 52.421875 12.554688 C 52.347656 12.175781 52.234375 11.804688 52.085938 11.445312 C 51.9375 11.085938 51.753906 10.746094 51.539062 10.421875 C 51.324219 10.097656 51.078125 9.800781 50.804688 9.523438 C 50.527344 9.25 50.230469 9.003906 49.90625 8.789062 C 49.582031 8.574219 49.242188 8.390625 48.882812 8.242188 C 48.523438 8.09375 48.152344 7.980469 47.773438 7.90625 C 47.390625 7.828125 47.007812 7.792969 46.617188 7.792969 Z M 46.617188 10.160156 C 47.089844 10.160156 47.542969 10.25 47.976562 10.429688 C 48.410156 10.609375 48.796875 10.867188 49.128906 11.199219 C 49.460938 11.53125 49.71875 11.917969 49.898438 12.351562 C 50.078125 12.785156 50.167969 13.238281 50.167969 13.710938 C 50.167969 14.183594 50.078125 14.636719 49.898438 15.070312 C 49.71875 15.503906 49.460938 15.890625 49.128906 16.222656 C 48.796875 16.554688 48.410156 16.8125 47.976562 16.992188 C 47.542969 17.171875 47.089844 17.261719 46.617188 17.261719 C 46.144531 17.261719 45.691406 17.171875 45.257812 16.992188 C 44.824219 16.8125 44.4375 16.554688 44.105469 16.222656 C 43.773438 15.890625 43.515625 15.503906 43.335938 15.070312 C 43.15625 14.636719 43.066406 14.183594 43.066406 13.710938 C 43.066406 13.238281 43.15625 12.785156 43.335938 12.351562 C 43.515625 11.917969 43.773438 11.53125 44.105469 11.199219 C 44.4375 10.867188 44.824219 10.609375 45.257812 10.429688 C 45.691406 10.25 46.144531 10.160156 46.617188 10.160156 Z M 46.617188 10.160156 " fill-opacity="1" fill-rule="nonzero"/></g><g clip-path="url(#b336f87406)"><path fill="#30be63" d="M 6.996094 49.554688 C 6.605469 49.554688 6.222656 49.59375 5.839844 49.667969 C 5.460938 49.746094 5.089844 49.855469 4.730469 50.003906 C 4.371094 50.152344 4.03125 50.335938 3.707031 50.550781 C 3.382812 50.769531 3.085938 51.015625 2.808594 51.289062 C 2.535156 51.5625 2.289062 51.863281 2.074219 52.1875 C 1.859375 52.507812 1.675781 52.851562 1.527344 53.210938 C 1.378906 53.566406 1.265625 53.9375 1.191406 54.320312 C 1.113281 54.699219 1.074219 55.085938 1.074219 55.472656 C 1.074219 55.863281 1.113281 56.25 1.191406 56.628906 C 1.265625 57.011719 1.378906 57.378906 1.527344 57.738281 C 1.675781 58.097656 1.859375 58.441406 2.074219 58.761719 C 2.289062 59.085938 2.535156 59.386719 2.808594 59.660156 C 3.085938 59.933594 3.382812 60.179688 3.707031 60.398438 C 4.03125 60.613281 4.371094 60.792969 4.730469 60.945312 C 5.089844 61.09375 5.460938 61.203125 5.839844 61.28125 C 6.222656 61.355469 6.605469 61.394531 6.996094 61.394531 C 7.382812 61.394531 7.769531 61.355469 8.148438 61.28125 C 8.53125 61.203125 8.902344 61.09375 9.261719 60.945312 C 9.621094 60.792969 9.960938 60.613281 10.285156 60.398438 C 10.609375 60.179688 10.90625 59.933594 11.179688 59.660156 C 11.457031 59.386719 11.703125 59.085938 11.917969 58.761719 C 12.132812 58.441406 12.316406 58.097656 12.464844 57.738281 C 12.613281 57.378906 12.726562 57.011719 12.800781 56.628906 C 12.878906 56.25 12.914062 55.863281 12.914062 55.472656 C 12.914062 55.085938 12.878906 54.699219 12.800781 54.320312 C 12.726562 53.9375 12.613281 53.566406 12.464844 53.210938 C 12.316406 52.851562 12.132812 52.507812 11.917969 52.1875 C 11.703125 51.863281 11.457031 51.5625 11.179688 51.289062 C 10.90625 51.015625 10.609375 50.769531 10.285156 50.550781 C 9.960938 50.335938 9.621094 50.152344 9.261719 50.003906 C 8.902344 49.855469 8.53125 49.746094 8.148438 49.667969 C 7.769531 49.59375 7.382812 49.554688 6.996094 49.554688 Z M 6.996094 51.921875 C 7.464844 51.921875 7.917969 52.011719 8.355469 52.191406 C 8.789062 52.375 9.175781 52.628906 9.507812 52.964844 C 9.839844 53.296875 10.097656 53.679688 10.277344 54.117188 C 10.457031 54.550781 10.546875 55.003906 10.546875 55.472656 C 10.546875 55.945312 10.457031 56.398438 10.277344 56.832031 C 10.097656 57.269531 9.839844 57.652344 9.507812 57.984375 C 9.175781 58.320312 8.789062 58.574219 8.355469 58.757812 C 7.917969 58.9375 7.464844 59.027344 6.996094 59.027344 C 6.523438 59.027344 6.070312 58.9375 5.636719 58.757812 C 5.203125 58.574219 4.816406 58.320312 4.484375 57.984375 C 4.152344 57.652344 3.894531 57.269531 3.714844 56.832031 C 3.535156 56.398438 3.445312 55.945312 3.445312 55.472656 C 3.445312 55.003906 3.535156 54.550781 3.714844 54.117188 C 3.894531 53.679688 4.152344 53.296875 4.484375 52.964844 C 4.816406 52.628906 5.203125 52.375 5.636719 52.191406 C 6.070312 52.011719 6.523438 51.921875 6.996094 51.921875 Z M 6.996094 51.921875 " fill-opacity="1" fill-rule="nonzero"/></g><g clip-path="url(#5d91129e61)"><g transform="matrix(1, 0, 0, 1, 52, 5)"><g clip-path="url(#b167cc08b9)"><g fill="#3ac46a" fill-opacity="1"><g transform="translate(0.566239, 55.274346)"><g><path d="M 6.613281 -39.800781 L 9.640625 -39.800781 L 9.640625 0.5625 L 6.613281 0.5625 Z M 7.734375 -38.679688 L 7.734375 -0.5625 L 8.519531 -0.5625 L 8.519531 -38.679688 Z M 7.734375 -38.679688 "/></g></g></g><g fill="#3ac46a" fill-opacity="1"><g transform="translate(16.821184, 55.274346)"><g><path d="M 39.074219 -39.242188 L 39.074219 0.5625 L 36.667969 0.5625 L 8.640625 -35.421875 L 9.082031 -35.765625 L 9.640625 -35.765625 L 9.640625 0.5625 L 6.613281 0.5625 L 6.613281 -39.800781 L 9.019531 -39.800781 L 37.046875 -3.820312 L 36.605469 -3.476562 L 36.046875 -3.476562 L 36.046875 -39.800781 L 39.074219 -39.800781 Z M 37.953125 -39.242188 L 38.511719 -39.242188 L 38.511719 -38.679688 L 36.605469 -38.679688 L 36.605469 -39.242188 L 37.167969 -39.242188 L 37.167969 -1.84375 L 8.304688 -38.898438 L 8.746094 -39.242188 L 8.746094 -38.679688 L 7.175781 -38.679688 L 7.175781 -39.242188 L 7.734375 -39.242188 L 7.734375 0 L 7.175781 0 L 7.175781 -0.5625 L 9.082031 -0.5625 L 9.082031 0 L 8.519531 0 L 8.519531 -37.398438 L 37.386719 -0.34375 L 36.941406 0 L 36.941406 -0.5625 L 38.511719 -0.5625 L 38.511719 0 L 37.953125 0 Z M 37.953125 -39.242188 "/></g></g></g><g fill="#3ac46a" fill-opacity="1"><g transform="translate(62.503201, 55.274346)"><g><path d="M 31.226562 -10.929688 L 7.734375 -10.929688 L 7.734375 -11.492188 L 8.246094 -11.257812 L 2.828125 0.5625 L -0.484375 0.5625 L 18.195312 -39.800781 L 20.765625 -39.800781 L 39.445312 0.5625 L 36.132812 0.5625 L 30.714844 -11.257812 L 31.226562 -11.492188 Z M 31.585938 -12.054688 L 37.003906 -0.234375 L 36.496094 0 L 36.496094 -0.5625 L 38.570312 -0.5625 L 38.570312 0 L 38.058594 0.234375 L 19.898438 -39.003906 L 20.40625 -39.242188 L 20.40625 -38.679688 L 18.554688 -38.679688 L 18.554688 -39.242188 L 19.0625 -39.003906 L 0.902344 0.234375 L 0.390625 0 L 0.390625 -0.5625 L 2.464844 -0.5625 L 2.464844 0 L 1.957031 -0.234375 L 7.375 -12.054688 Z M 29.988281 -12.882812 L 19 -36.820312 L 19.507812 -37.054688 L 20.019531 -36.820312 L 8.972656 -12.882812 L 8.464844 -13.117188 L 8.464844 -13.679688 L 30.496094 -13.679688 L 30.496094 -13.117188 Z M 31.371094 -12.558594 L 7.589844 -12.558594 L 19.511719 -38.394531 L 31.003906 -13.351562 Z M 31.371094 -12.558594 "/></g></g></g><g fill="#3ac46a" fill-opacity="1"><g transform="translate(101.515077, 55.274346)"><g><path d="M 20.796875 -39.800781 C 25.828125 -39.800781 29.769531 -38.609375 32.621094 -36.222656 C 35.503906 -33.8125 36.941406 -30.484375 36.941406 -26.234375 C 36.941406 -21.949219 35.503906 -18.601562 32.621094 -16.191406 C 29.769531 -13.804688 25.828125 -12.613281 20.796875 -12.613281 L 9.082031 -12.613281 L 9.082031 -13.175781 L 9.640625 -13.175781 L 9.640625 0.5625 L 6.613281 0.5625 L 6.613281 -39.800781 Z M 20.796875 -38.679688 L 7.175781 -38.679688 L 7.175781 -39.242188 L 7.734375 -39.242188 L 7.734375 0 L 7.175781 0 L 7.175781 -0.5625 L 9.082031 -0.5625 L 9.082031 0 L 8.519531 0 L 8.519531 -13.734375 L 20.796875 -13.734375 C 25.558594 -13.734375 29.257812 -14.839844 31.902344 -17.050781 C 34.515625 -19.238281 35.820312 -22.300781 35.820312 -26.234375 C 35.820312 -30.132812 34.515625 -33.175781 31.902344 -35.363281 C 29.257812 -37.574219 25.558594 -38.679688 20.796875 -38.679688 Z M 20.910156 -15.472656 C 25.148438 -15.472656 28.390625 -16.410156 30.640625 -18.285156 C 32.863281 -20.136719 33.972656 -22.785156 33.972656 -26.234375 C 33.972656 -29.648438 32.863281 -32.28125 30.640625 -34.128906 C 28.390625 -36.003906 25.148438 -36.941406 20.910156 -36.941406 L 9.082031 -36.941406 L 9.082031 -37.503906 L 9.640625 -37.503906 L 9.640625 -14.910156 L 9.082031 -14.910156 L 9.082031 -15.472656 Z M 20.910156 -14.351562 L 8.519531 -14.351562 L 8.519531 -38.0625 L 20.910156 -38.0625 C 25.417969 -38.0625 28.902344 -37.039062 31.359375 -34.992188 C 33.847656 -32.917969 35.09375 -30 35.09375 -26.234375 C 35.09375 -22.433594 33.847656 -19.5 31.359375 -17.425781 C 28.902344 -15.375 25.417969 -14.351562 20.910156 -14.351562 Z M 20.910156 -14.351562 "/></g></g></g><g fill="#3ac46a" fill-opacity="1"><g transform="translate(141.423787, 55.274346)"><g><path d="M 17.097656 0.785156 C 14.1875 0.785156 11.417969 0.265625 8.792969 -0.769531 C 6.144531 -1.8125 4.101562 -3.171875 2.660156 -4.847656 L 2.363281 -5.1875 L 4.058594 -7.449219 L 4.515625 -6.929688 C 5.765625 -5.5 7.515625 -4.324219 9.769531 -3.40625 C 12.039062 -2.480469 14.460938 -2.019531 17.042969 -2.019531 C 20.839844 -2.019531 23.683594 -2.753906 25.582031 -4.226562 C 27.4375 -5.664062 28.367188 -7.507812 28.367188 -9.753906 C 28.367188 -11.476562 27.890625 -12.855469 26.945312 -13.886719 C 25.957031 -14.960938 24.738281 -15.773438 23.289062 -16.320312 C 21.78125 -16.890625 19.710938 -17.492188 17.078125 -18.121094 C 14.210938 -18.839844 11.90625 -19.539062 10.167969 -20.21875 C 8.363281 -20.925781 6.832031 -22.003906 5.574219 -23.457031 C 4.289062 -24.945312 3.644531 -26.917969 3.644531 -29.375 C 3.644531 -31.316406 4.160156 -33.097656 5.1875 -34.71875 C 6.21875 -36.347656 7.785156 -37.640625 9.886719 -38.601562 C 11.957031 -39.550781 14.53125 -40.027344 17.601562 -40.027344 C 19.789062 -40.027344 21.945312 -39.699219 24.074219 -39.046875 C 26.210938 -38.394531 28.039062 -37.484375 29.546875 -36.320312 L 29.929688 -36.027344 L 28.546875 -33.535156 L 28.035156 -33.910156 C 26.554688 -34.996094 24.898438 -35.816406 23.070312 -36.378906 C 21.238281 -36.941406 19.433594 -37.222656 17.660156 -37.222656 C 13.980469 -37.222656 11.210938 -36.46875 9.351562 -34.964844 C 7.527344 -33.488281 6.613281 -31.625 6.613281 -29.375 C 6.613281 -27.617188 7.097656 -26.222656 8.0625 -25.1875 C 9.066406 -24.113281 10.308594 -23.289062 11.777344 -22.722656 C 13.304688 -22.132812 15.367188 -21.523438 17.960938 -20.894531 C 20.824219 -20.179688 23.125 -19.488281 24.867188 -18.828125 C 26.671875 -18.140625 28.195312 -17.078125 29.433594 -15.640625 C 30.703125 -14.171875 31.335938 -12.230469 31.335938 -9.808594 C 31.335938 -7.867188 30.8125 -6.085938 29.761719 -4.460938 C 28.710938 -2.832031 27.105469 -1.550781 24.945312 -0.605469 C 22.820312 0.320312 20.203125 0.785156 17.097656 0.785156 Z M 17.097656 -0.335938 C 20.046875 -0.335938 22.515625 -0.769531 24.496094 -1.636719 C 26.449219 -2.488281 27.890625 -3.632812 28.820312 -5.070312 C 29.75 -6.507812 30.214844 -8.089844 30.214844 -9.808594 C 30.214844 -11.949219 29.671875 -13.652344 28.585938 -14.910156 C 27.46875 -16.203125 26.097656 -17.160156 24.464844 -17.777344 C 22.769531 -18.425781 20.511719 -19.101562 17.695312 -19.804688 C 15.054688 -20.445312 12.949219 -21.070312 11.375 -21.675781 C 9.742188 -22.304688 8.367188 -23.222656 7.242188 -24.421875 C 6.078125 -25.671875 5.492188 -27.320312 5.492188 -29.375 C 5.492188 -31.984375 6.542969 -34.136719 8.644531 -35.835938 C 10.710938 -37.507812 13.714844 -38.34375 17.660156 -38.34375 C 19.546875 -38.34375 21.460938 -38.046875 23.402344 -37.449219 C 25.347656 -36.851562 27.113281 -35.976562 28.695312 -34.816406 L 28.367188 -34.363281 L 27.875 -34.636719 L 28.714844 -36.148438 L 29.207031 -35.878906 L 28.863281 -35.433594 C 27.460938 -36.511719 25.753906 -37.359375 23.746094 -37.976562 C 21.722656 -38.59375 19.675781 -38.90625 17.601562 -38.90625 C 14.695312 -38.90625 12.277344 -38.464844 10.351562 -37.582031 C 8.453125 -36.710938 7.046875 -35.558594 6.136719 -34.121094 C 5.222656 -32.679688 4.765625 -31.097656 4.765625 -29.375 C 4.765625 -27.195312 5.316406 -25.46875 6.421875 -24.191406 C 7.558594 -22.878906 8.941406 -21.902344 10.574219 -21.265625 C 12.273438 -20.601562 14.527344 -19.917969 17.339844 -19.214844 C 20.015625 -18.570312 22.132812 -17.957031 23.6875 -17.371094 C 25.300781 -16.757812 26.664062 -15.851562 27.769531 -14.644531 C 28.914062 -13.398438 29.488281 -11.769531 29.488281 -9.753906 C 29.488281 -7.140625 28.414062 -5.003906 26.269531 -3.339844 C 24.171875 -1.710938 21.09375 -0.898438 17.042969 -0.898438 C 14.316406 -0.898438 11.75 -1.386719 9.347656 -2.367188 C 6.929688 -3.355469 5.035156 -4.628906 3.671875 -6.191406 L 4.09375 -6.558594 L 4.539062 -6.222656 L 3.53125 -4.878906 L 3.082031 -5.214844 L 3.507812 -5.578125 C 4.832031 -4.042969 6.730469 -2.785156 9.203125 -1.8125 C 11.695312 -0.828125 14.328125 -0.335938 17.097656 -0.335938 Z M 17.097656 -0.335938 "/></g></g></g><g fill="#3ac46a" fill-opacity="1"><g transform="translate(175.278928, 55.274346)"><g><path d="M 6.613281 -39.800781 L 9.640625 -39.800781 L 9.640625 0.5625 L 6.613281 0.5625 Z M 7.734375 -38.679688 L 7.734375 -0.5625 L 8.519531 -0.5625 L 8.519531 -38.679688 Z M 7.734375 -38.679688 "/></g></g></g><g fill="#3ac46a" fill-opacity="1"><g transform="translate(191.533873, 55.274346)"><g><path d="M 17.097656 0.785156 C 14.1875 0.785156 11.417969 0.265625 8.792969 -0.769531 C 6.144531 -1.8125 4.101562 -3.171875 2.660156 -4.847656 L 2.363281 -5.1875 L 4.058594 -7.449219 L 4.515625 -6.929688 C 5.765625 -5.5 7.515625 -4.324219 9.769531 -3.40625 C 12.039062 -2.480469 14.460938 -2.019531 17.042969 -2.019531 C 20.839844 -2.019531 23.683594 -2.753906 25.582031 -4.226562 C 27.4375 -5.664062 28.367188 -7.507812 28.367188 -9.753906 C 28.367188 -11.476562 27.890625 -12.855469 26.945312 -13.886719 C 25.957031 -14.960938 24.738281 -15.773438 23.289062 -16.320312 C 21.78125 -16.890625 19.710938 -17.492188 17.078125 -18.121094 C 14.210938 -18.839844 11.90625 -19.539062 10.167969 -20.21875 C 8.363281 -20.925781 6.832031 -22.003906 5.574219 -23.457031 C 4.289062 -24.945312 3.644531 -26.917969 3.644531 -29.375 C 3.644531 -31.316406 4.160156 -33.097656 5.1875 -34.71875 C 6.21875 -36.347656 7.785156 -37.640625 9.886719 -38.601562 C 11.957031 -39.550781 14.53125 -40.027344 17.601562 -40.027344 C 19.789062 -40.027344 21.945312 -39.699219 24.074219 -39.046875 C 26.210938 -38.394531 28.039062 -37.484375 29.546875 -36.320312 L 29.929688 -36.027344 L 28.546875 -33.535156 L 28.035156 -33.910156 C 26.554688 -34.996094 24.898438 -35.816406 23.070312 -36.378906 C 21.238281 -36.941406 19.433594 -37.222656 17.660156 -37.222656 C 13.980469 -37.222656 11.210938 -36.46875 9.351562 -34.964844 C 7.527344 -33.488281 6.613281 -31.625 6.613281 -29.375 C 6.613281 -27.617188 7.097656 -26.222656 8.0625 -25.1875 C 9.066406 -24.113281 10.308594 -23.289062 11.777344 -22.722656 C 13.304688 -22.132812 15.367188 -21.523438 17.960938 -20.894531 C 20.824219 -20.179688 23.125 -19.488281 24.867188 -18.828125 C 26.671875 -18.140625 28.195312 -17.078125 29.433594 -15.640625 C 30.703125 -14.171875 31.335938 -12.230469 31.335938 -9.808594 C 31.335938 -7.867188 30.8125 -6.085938 29.761719 -4.460938 C 28.710938 -2.832031 27.105469 -1.550781 24.945312 -0.605469 C 22.820312 0.320312 20.203125 0.785156 17.097656 0.785156 Z M 17.097656 -0.335938 C 20.046875 -0.335938 22.515625 -0.769531 24.496094 -1.636719 C 26.449219 -2.488281 27.890625 -3.632812 28.820312 -5.070312 C 29.75 -6.507812 30.214844 -8.089844 30.214844 -9.808594 C 30.214844 -11.949219 29.671875 -13.652344 28.585938 -14.910156 C 27.46875 -16.203125 26.097656 -17.160156 24.464844 -17.777344 C 22.769531 -18.425781 20.511719 -19.101562 17.695312 -19.804688 C 15.054688 -20.445312 12.949219 -21.070312 11.375 -21.675781 C 9.742188 -22.304688 8.367188 -23.222656 7.242188 -24.421875 C 6.078125 -25.671875 5.492188 -27.320312 5.492188 -29.375 C 5.492188 -31.984375 6.542969 -34.136719 8.644531 -35.835938 C 10.710938 -37.507812 13.714844 -38.34375 17.660156 -38.34375 C 19.546875 -38.34375 21.460938 -38.046875 23.402344 -37.449219 C 25.347656 -36.851562 27.113281 -35.976562 28.695312 -34.816406 L 28.367188 -34.363281 L 27.875 -34.636719 L 28.714844 -36.148438 L 29.207031 -35.878906 L 28.863281 -35.433594 C 27.460938 -36.511719 25.753906 -37.359375 23.746094 -37.976562 C 21.722656 -38.59375 19.675781 -38.90625 17.601562 -38.90625 C 14.695312 -38.90625 12.277344 -38.464844 10.351562 -37.582031 C 8.453125 -36.710938 7.046875 -35.558594 6.136719 -34.121094 C 5.222656 -32.679688 4.765625 -31.097656 4.765625 -29.375 C 4.765625 -27.195312 5.316406 -25.46875 6.421875 -24.191406 C 7.558594 -22.878906 8.941406 -21.902344 10.574219 -21.265625 C 12.273438 -20.601562 14.527344 -19.917969 17.339844 -19.214844 C 20.015625 -18.570312 22.132812 -17.957031 23.6875 -17.371094 C 25.300781 -16.757812 26.664062 -15.851562 27.769531 -14.644531 C 28.914062 -13.398438 29.488281 -11.769531 29.488281 -9.753906 C 29.488281 -7.140625 28.414062 -5.003906 26.269531 -3.339844 C 24.171875 -1.710938 21.09375 -0.898438 17.042969 -0.898438 C 14.316406 -0.898438 11.75 -1.386719 9.347656 -2.367188 C 6.929688 -3.355469 5.035156 -4.628906 3.671875 -6.191406 L 4.09375 -6.558594 L 4.539062 -6.222656 L 3.53125 -4.878906 L 3.082031 -5.214844 L 3.507812 -5.578125 C 4.832031 -4.042969 6.730469 -2.785156 9.203125 -1.8125 C 11.695312 -0.828125 14.328125 -0.335938 17.097656 -0.335938 Z M 17.097656 -0.335938 "/></g></g></g><g fill="#3ac46a" fill-opacity="1"><g transform="translate(0.566239, 55.274346)"><g><path d="M 7.171875 -39.25 L 9.078125 -39.25 L 9.078125 0 L 7.171875 0 Z M 7.171875 -39.25 "/></g></g></g><g fill="#3ac46a" fill-opacity="1"><g transform="translate(16.821184, 55.274346)"><g><path d="M 38.515625 -39.25 L 38.515625 0 L 36.9375 0 L 9.078125 -35.765625 L 9.078125 0 L 7.171875 0 L 7.171875 -39.25 L 8.75 -39.25 L 36.609375 -3.46875 L 36.609375 -39.25 Z M 38.515625 -39.25 "/></g></g></g><g fill="#3ac46a" fill-opacity="1"><g transform="translate(62.503201, 55.274346)"><g><path d="M 31.234375 -11.5 L 7.734375 -11.5 L 2.46875 0 L 0.390625 0 L 18.5625 -39.25 L 20.40625 -39.25 L 38.578125 0 L 36.5 0 Z M 30.5 -13.125 L 19.515625 -37.0625 L 8.46875 -13.125 Z M 30.5 -13.125 "/></g></g></g><g fill="#3ac46a" fill-opacity="1"><g transform="translate(101.515077, 55.274346)"><g><path d="M 20.796875 -39.25 C 25.691406 -39.25 29.515625 -38.097656 32.265625 -35.796875 C 35.015625 -33.492188 36.390625 -30.304688 36.390625 -26.234375 C 36.390625 -22.128906 35.015625 -18.925781 32.265625 -16.625 C 29.515625 -14.320312 25.691406 -13.171875 20.796875 -13.171875 L 9.078125 -13.171875 L 9.078125 0 L 7.171875 0 L 7.171875 -39.25 Z M 20.90625 -14.90625 C 25.28125 -14.90625 28.644531 -15.882812 31 -17.84375 C 33.351562 -19.8125 34.53125 -22.609375 34.53125 -26.234375 C 34.53125 -29.828125 33.351562 -32.601562 31 -34.5625 C 28.644531 -36.519531 25.28125 -37.5 20.90625 -37.5 L 9.078125 -37.5 L 9.078125 -14.90625 Z M 20.90625 -14.90625 "/></g></g></g><g fill="#3ac46a" fill-opacity="1"><g transform="translate(141.423787, 55.274346)"><g><path d="M 17.09375 0.21875 C 14.257812 0.21875 11.5625 -0.28125 9 -1.28125 C 6.4375 -2.289062 4.460938 -3.601562 3.078125 -5.21875 L 4.09375 -6.5625 C 5.40625 -5.0625 7.226562 -3.832031 9.5625 -2.875 C 11.894531 -1.925781 14.390625 -1.453125 17.046875 -1.453125 C 20.960938 -1.453125 23.921875 -2.226562 25.921875 -3.78125 C 27.921875 -5.332031 28.921875 -7.320312 28.921875 -9.75 C 28.921875 -11.625 28.394531 -13.128906 27.34375 -14.265625 C 26.300781 -15.410156 25.015625 -16.269531 23.484375 -16.84375 C 21.953125 -17.425781 19.863281 -18.035156 17.21875 -18.671875 C 14.375 -19.378906 12.09375 -20.066406 10.375 -20.734375 C 8.65625 -21.410156 7.195312 -22.441406 6 -23.828125 C 4.800781 -25.210938 4.203125 -27.0625 4.203125 -29.375 C 4.203125 -31.207031 4.6875 -32.890625 5.65625 -34.421875 C 6.632812 -35.953125 8.125 -37.175781 10.125 -38.09375 C 12.125 -39.007812 14.617188 -39.46875 17.609375 -39.46875 C 19.734375 -39.46875 21.832031 -39.148438 23.90625 -38.515625 C 25.976562 -37.878906 27.742188 -37 29.203125 -35.875 L 28.375 -34.359375 C 26.832031 -35.484375 25.117188 -36.332031 23.234375 -36.90625 C 21.347656 -37.488281 19.488281 -37.78125 17.65625 -37.78125 C 13.84375 -37.78125 10.957031 -36.984375 9 -35.390625 C 7.039062 -33.804688 6.0625 -31.800781 6.0625 -29.375 C 6.0625 -27.46875 6.59375 -25.941406 7.65625 -24.796875 C 8.71875 -23.660156 10.023438 -22.789062 11.578125 -22.1875 C 13.128906 -21.59375 15.210938 -20.976562 17.828125 -20.34375 C 20.671875 -19.632812 22.953125 -18.953125 24.671875 -18.296875 C 26.390625 -17.648438 27.835938 -16.644531 29.015625 -15.28125 C 30.191406 -13.914062 30.78125 -12.09375 30.78125 -9.8125 C 30.78125 -7.976562 30.285156 -6.296875 29.296875 -4.765625 C 28.304688 -3.234375 26.78125 -2.019531 24.71875 -1.125 C 22.664062 -0.226562 20.125 0.21875 17.09375 0.21875 Z M 17.09375 0.21875 "/></g></g></g><g fill="#3ac46a" fill-opacity="1"><g transform="translate(175.278928, 55.274346)"><g><path d="M 7.171875 -39.25 L 9.078125 -39.25 L 9.078125 0 L 7.171875 0 Z M 7.171875 -39.25 "/></g></g></g><g fill="#3ac46a" fill-opacity="1"><g transform="translate(191.533873, 55.274346)"><g><path d="M 17.09375 0.21875 C 14.257812 0.21875 11.5625 -0.28125 9 -1.28125 C 6.4375 -2.289062 4.460938 -3.601562 3.078125 -5.21875 L 4.09375 -6.5625 C 5.40625 -5.0625 7.226562 -3.832031 9.5625 -2.875 C 11.894531 -1.925781 14.390625 -1.453125 17.046875 -1.453125 C 20.960938 -1.453125 23.921875 -2.226562 25.921875 -3.78125 C 27.921875 -5.332031 28.921875 -7.320312 28.921875 -9.75 C 28.921875 -11.625 28.394531 -13.128906 27.34375 -14.265625 C 26.300781 -15.410156 25.015625 -16.269531 23.484375 -16.84375 C 21.953125 -17.425781 19.863281 -18.035156 17.21875 -18.671875 C 14.375 -19.378906 12.09375 -20.066406 10.375 -20.734375 C 8.65625 -21.410156 7.195312 -22.441406 6 -23.828125 C 4.800781 -25.210938 4.203125 -27.0625 4.203125 -29.375 C 4.203125 -31.207031 4.6875 -32.890625 5.65625 -34.421875 C 6.632812 -35.953125 8.125 -37.175781 10.125 -38.09375 C 12.125 -39.007812 14.617188 -39.46875 17.609375 -39.46875 C 19.734375 -39.46875 21.832031 -39.148438 23.90625 -38.515625 C 25.976562 -37.878906 27.742188 -37 29.203125 -35.875 L 28.375 -34.359375 C 26.832031 -35.484375 25.117188 -36.332031 23.234375 -36.90625 C 21.347656 -37.488281 19.488281 -37.78125 17.65625 -37.78125 C 13.84375 -37.78125 10.957031 -36.984375 9 -35.390625 C 7.039062 -33.804688 6.0625 -31.800781 6.0625 -29.375 C 6.0625 -27.46875 6.59375 -25.941406 7.65625 -24.796875 C 8.71875 -23.660156 10.023438 -22.789062 11.578125 -22.1875 C 13.128906 -21.59375 15.210938 -20.976562 17.828125 -20.34375 C 20.671875 -19.632812 22.953125 -18.953125 24.671875 -18.296875 C 26.390625 -17.648438 27.835938 -16.644531 29.015625 -15.28125 C 30.191406 -13.914062 30.78125 -12.09375 30.78125 -9.8125 C 30.78125 -7.976562 30.285156 -6.296875 29.296875 -4.765625 C 28.304688 -3.234375 26.78125 -2.019531 24.71875 -1.125 C 22.664062 -0.226562 20.125 0.21875 17.09375 0.21875 Z M 17.09375 0.21875 "/></g></g></g></g></g></g><g clip-path="url(#e967259023)"><g clip-path="url(#249f93c91a)"><g clip-path="url(#991855c4bc)"><g transform="matrix(1, 0, 0, 1, 112, 39)"><g clip-path="url(#474fefbf38)"><g clip-path="url(#b59dd647ab)"><g clip-path="url(#7a8390d0dc)"><g clip-path="url(#3cf2d588fc)"><path fill="#000000" d="M -1.210938 1.359375 L 31.851562 -0.800781 L 33.738281 28.085938 L 0.675781 30.246094 Z M -1.210938 1.359375 " fill-opacity="1" fill-rule="nonzero"/></g></g></g></g></g></g></g></g><g clip-path="url(#fc8e924fcf)"><g transform="matrix(1, 0, 0, 1, 156, 23)"><g clip-path="url(#1fa24beb82)"><g clip-path="url(#d7d0250fc2)"><path fill="#000000" d="M 0.988281 0.230469 L 16.164062 0.230469 L 16.164062 21.871094 L 0.988281 21.871094 Z M 0.988281 0.230469 " fill-opacity="1" fill-rule="nonzero"/></g></g></g></g><g clip-path="url(#966a7faa35)"><g clip-path="url(#eabc4962d8)"><g clip-path="url(#899aebead0)"><g transform="matrix(1, 0, 0, 1, 120, 35)"><g clip-path="url(#5161b41426)"><g clip-path="url(#e0e007cb42)"><g clip-path="url(#b69158c9ad)"><g clip-path="url(#d80fab1e19)"><path fill="#000000" d="M 2.644531 -0.296875 L 35.683594 2.1875 L 33.515625 31.054688 L 0.476562 28.570312 Z M 2.644531 -0.296875 " fill-opacity="1" fill-rule="nonzero"/></g></g></g></g></g></g></g></g></g></g></g></svg>